<svg id="Layer_1" data-name="Layer 1" xmlns="http://www.w3.org/2000/svg" viewBox="0 0 610 432">
  <defs>
    <style>
      .cls-1 {
        fill: #b3b3b3;
      }

      .cls-2 {
        fill: #fff;
      }

      .cls-3 {
        fill: #76b900;
      }

      .cls-4 {
        fill: red;
      }
    </style>
  </defs>
  <g>
    <path class="cls-1" d="M172.92863,162.82628,76.58619,107.98476h45.76018L75.766,54.95461l96.34244,54.84152H126.34826ZM83.42955,109.79613l81.01534,46.11662-40.50767-46.11662Zm41.32786-1.81137h40.50767L84.24974,61.86814Z"/>
    <path class="cls-1" d="M167.90549,260.78521,79.2266,109.348l1.46171-1.05516,40.47524,46.07947L79.17884,58.77548l1.6103-.82167L169.468,209.391l-1.46172,1.05516-40.47523-46.07947,41.98471,95.59684ZM85.56758,116.59232l76.014,129.80922-38.007-86.53968ZM125.12,158.87716l38.007,43.26955L87.113,72.33749Z"/>
    <path class="cls-1" d="M172.92863,263.78442,76.58619,208.9429h45.76018L75.766,155.91275l96.34244,54.84152H126.34826ZM83.42955,210.75427l81.01534,46.11662-40.50767-46.11662Zm41.32786-1.81137h40.50767L84.24974,162.82628Z"/>
    <path class="cls-1" d="M75.766,213.30535l46.58037-53.03015H76.58619l96.34244-54.84152-46.58037,53.03015h45.76018Zm48.99141-53.03015L84.24974,206.39182l81.01534-46.11662Zm-41.32786-1.81137h40.50767l40.50767-46.11662Z"/>
    <path class="cls-1" d="M80.78914,311.26428l-1.6103-.82166,41.98471-95.59684L80.68831,260.92525l-1.46171-1.05516,88.67889-151.43721,1.6103.82167-41.98471,95.59683,40.47523-46.07947,1.46172,1.05516ZM125.12,210.34093,87.113,296.88061l76.014-129.80922Zm36.46156-87.52437-76.014,129.80922,38.007-43.26955Z"/>
    <path class="cls-1" d="M75.766,314.26348l46.58037-53.03014H76.58619l96.34244-54.84152L126.34826,259.422h45.76018Zm48.99141-53.03014L84.24974,307.35l81.01534-46.11662ZM83.42955,259.422h40.50767l40.50767-46.11661Z"/>
    <path class="cls-1" d="M261.60752,213.30535l-96.34244-54.84152h45.76018l-46.58037-53.03015,96.34244,54.84152H215.02715ZM172.10844,160.2752l81.01534,46.11662L212.61611,160.2752Zm41.32786-1.81137H253.944l-81.01534-46.11662Z"/>
    <g>
      <g>
        <circle class="cls-2" cx="80.00796" cy="58.41142" r="20.00567"/>
        <path class="cls-3" d="M80.00787,79.32266a20.91129,20.91129,0,1,1,20.91158-20.91129A20.93486,20.93486,0,0,1,80.00787,79.32266Zm0-40.0112a19.09991,19.09991,0,1,0,19.1002,19.09991A19.12131,19.12131,0,0,0,80.00787,39.31146Z"/>
      </g>
      <g>
        <circle class="cls-2" cx="80.00796" cy="108.89047" r="20.00567"/>
        <path class="cls-3" d="M80.00787,129.80173a20.91129,20.91129,0,1,1,20.91158-20.91129A20.93486,20.93486,0,0,1,80.00787,129.80173Zm0-40.0112a19.09991,19.09991,0,1,0,19.1002,19.09991A19.12131,19.12131,0,0,0,80.00787,89.79053Z"/>
      </g>
      <g>
        <circle class="cls-2" cx="80.00796" cy="159.36952" r="20.00567"/>
        <path class="cls-3" d="M80.00787,180.2808a20.91129,20.91129,0,1,1,20.91158-20.91129A20.93486,20.93486,0,0,1,80.00787,180.2808Zm0-40.0112a19.09991,19.09991,0,1,0,19.1002,19.09991A19.12131,19.12131,0,0,0,80.00787,140.2696Z"/>
      </g>
      <g>
        <circle class="cls-2" cx="80.00796" cy="209.84856" r="20.00567"/>
        <path class="cls-3" d="M80.00787,230.75987a20.91129,20.91129,0,1,1,20.91158-20.91129A20.93486,20.93486,0,0,1,80.00787,230.75987Zm0-40.0112a19.09991,19.09991,0,1,0,19.1002,19.09991A19.12131,19.12131,0,0,0,80.00787,190.74867Z"/>
      </g>
      <g>
        <circle class="cls-2" cx="80.00796" cy="260.32761" r="20.00567"/>
        <path class="cls-3" d="M80.00787,281.23893a20.91128,20.91128,0,1,1,20.91158-20.91128A20.93486,20.93486,0,0,1,80.00787,281.23893Zm0-40.01119a19.09991,19.09991,0,1,0,19.1002,19.09991A19.12131,19.12131,0,0,0,80.00787,241.22774Z"/>
      </g>
      <g>
        <circle class="cls-2" cx="80.00796" cy="310.80666" r="20.00567"/>
        <path class="cls-3" d="M80.00787,331.718a20.91128,20.91128,0,1,1,20.91158-20.91128A20.93486,20.93486,0,0,1,80.00787,331.718Zm0-40.01119a19.09991,19.09991,0,1,0,19.1002,19.09991A19.12131,19.12131,0,0,0,80.00787,291.70681Z"/>
      </g>
    </g>
    <path class="cls-1" d="M164.44489,263.78442l46.58037-53.03015H165.26508l96.34244-54.84152L215.02715,208.9429h45.76018Zm48.99141-53.03015-40.50767,46.11662L253.944,210.75427Zm-41.32786-1.81137h40.50767l40.50767-46.11662Z"/>
    <g>
      <g>
        <circle class="cls-2" cx="257.36592" cy="159.36952" r="20.00567"/>
        <path class="cls-3" d="M257.36565,180.2808a20.91129,20.91129,0,1,1,20.91158-20.91129A20.93486,20.93486,0,0,1,257.36565,180.2808Zm0-40.0112a19.09991,19.09991,0,1,0,19.1002,19.09991A19.12132,19.12132,0,0,0,257.36565,140.2696Z"/>
      </g>
      <g>
        <circle class="cls-2" cx="257.36592" cy="209.84856" r="20.00567"/>
        <path class="cls-3" d="M257.36565,230.75987a20.91129,20.91129,0,1,1,20.91158-20.91129A20.93486,20.93486,0,0,1,257.36565,230.75987Zm0-40.0112a19.09991,19.09991,0,1,0,19.1002,19.09991A19.12132,19.12132,0,0,0,257.36565,190.74867Z"/>
      </g>
    </g>
    <g>
      <g>
        <circle class="cls-2" cx="168.68694" cy="108.89047" r="20.00567"/>
        <path class="cls-3" d="M168.68676,129.80173a20.91129,20.91129,0,1,1,20.91158-20.91129A20.93486,20.93486,0,0,1,168.68676,129.80173Zm0-40.0112a19.09991,19.09991,0,1,0,19.1002,19.09991A19.12132,19.12132,0,0,0,168.68676,89.79053Z"/>
      </g>
      <g>
        <circle class="cls-2" cx="168.68694" cy="159.36952" r="20.00567"/>
        <path class="cls-3" d="M168.68676,180.2808a20.91129,20.91129,0,1,1,20.91158-20.91129A20.93486,20.93486,0,0,1,168.68676,180.2808Zm0-40.0112a19.09991,19.09991,0,1,0,19.1002,19.09991A19.12132,19.12132,0,0,0,168.68676,140.2696Z"/>
      </g>
      <g>
        <circle class="cls-2" cx="168.68694" cy="209.84856" r="20.00567"/>
        <path class="cls-4" d="M168.68676,230.75987a20.91129,20.91129,0,1,1,20.91158-20.91129A20.93486,20.93486,0,0,1,168.68676,230.75987Zm0-40.0112a19.09991,19.09991,0,1,0,19.1002,19.09991A19.12132,19.12132,0,0,0,168.68676,190.74867Z"/>
      </g>
      <g>
        <circle class="cls-2" cx="168.68694" cy="260.32761" r="20.00567"/>
        <path class="cls-3" d="M168.68676,281.23893a20.91128,20.91128,0,1,1,20.91158-20.91128A20.93486,20.93486,0,0,1,168.68676,281.23893Zm0-40.01119a19.09991,19.09991,0,1,0,19.1002,19.09991A19.12132,19.12132,0,0,0,168.68676,241.22774Z"/>
      </g>
    </g>
  </g>
  <g>
    <path class="cls-1" d="M445.55452,162.82628l-96.34244-54.84152h45.76018L348.39189,54.95461l96.34244,54.84152H398.97415Zm-89.49908-53.03015,81.01534,46.11662-40.50767-46.11662Zm41.32786-1.81137H437.891L356.87563,61.86814Z"/>
    <polygon class="cls-1" points="440.531 260.785 351.852 109.348 353.415 108.433 434.207 246.402 351.805 58.775 353.463 58.047 442.142 259.964 440.531 260.785"/>
    <polygon class="cls-1" points="445.555 263.784 352.186 210.636 353.082 209.061 437.071 256.871 351.953 159.967 353.314 158.772 445.555 263.784"/>
    <path class="cls-1" d="M348.39189,213.30535l46.58037-53.03015H349.21208l96.34244-54.84152-46.58037,53.03015h45.76018ZM397.3833,160.2752l-40.50767,46.11662L437.891,160.2752Zm-41.32786-1.81137h40.50767l40.50767-46.11662Z"/>
    <path class="cls-1" d="M353.415,311.26428l-1.61031-.82166,41.98472-95.59684-40.47524,46.07947-1.46172-1.05516,88.67889-151.43721,1.6103.82167L400.157,204.85138l40.47524-46.07947,1.46171,1.05516Zm44.33089-100.92335-38.007,86.53968,76.014-129.80922Zm36.46156-87.52437-76.014,129.80922,38.007-43.26955Z"/>
    <polygon class="cls-1" points="353.082 311.594 352.186 310.02 437.891 261.233 352.634 261.233 352.634 259.422 444.734 259.422 353.082 311.594"/>
    <path class="cls-1" d="M534.23341,213.30535,437.891,158.46383h45.76018l-46.58037-53.03015,96.34244,54.84152H487.653ZM444.73433,160.2752l81.01534,46.11662L485.242,160.2752Zm41.32786-1.81137h40.50767l-81.01534-46.11662Z"/>
    <g>
      <g>
        <circle class="cls-2" cx="352.63367" cy="58.41142" r="20.00567"/>
        <path class="cls-3" d="M352.63376,79.32266a20.91129,20.91129,0,1,1,20.911-20.91129A20.93537,20.93537,0,0,1,352.63376,79.32266Zm0-40.0112a19.09991,19.09991,0,1,0,19.09962,19.09991A19.12144,19.12144,0,0,0,352.63376,39.31146Z"/>
      </g>
      <g>
        <circle class="cls-2" cx="352.63367" cy="108.89047" r="20.00567"/>
        <path class="cls-3" d="M352.63376,129.80173a20.91129,20.91129,0,1,1,20.911-20.91129A20.93537,20.93537,0,0,1,352.63376,129.80173Zm0-40.0112a19.09991,19.09991,0,1,0,19.09962,19.09991A19.12144,19.12144,0,0,0,352.63376,89.79053Z"/>
      </g>
      <g>
        <circle class="cls-2" cx="352.63367" cy="159.36952" r="20.00567"/>
        <path class="cls-3" d="M352.63376,180.2808a20.91129,20.91129,0,1,1,20.911-20.91129A20.93537,20.93537,0,0,1,352.63376,180.2808Zm0-40.0112a19.09991,19.09991,0,1,0,19.09962,19.09991A19.12144,19.12144,0,0,0,352.63376,140.2696Z"/>
      </g>
      <g>
        <circle class="cls-2" cx="352.63367" cy="209.84856" r="20.00567"/>
        <path class="cls-3" d="M352.63376,230.75987a20.91129,20.91129,0,1,1,20.911-20.91129A20.93537,20.93537,0,0,1,352.63376,230.75987Zm0-40.0112a19.09991,19.09991,0,1,0,19.09962,19.09991A19.12144,19.12144,0,0,0,352.63376,190.74867Z"/>
      </g>
      <g>
        <circle class="cls-2" cx="352.63367" cy="260.32761" r="20.00567"/>
        <path class="cls-3" d="M352.63376,281.23893a20.91128,20.91128,0,1,1,20.911-20.91128A20.93536,20.93536,0,0,1,352.63376,281.23893Zm0-40.01119a19.09991,19.09991,0,1,0,19.09962,19.09991A19.12144,19.12144,0,0,0,352.63376,241.22774Z"/>
      </g>
      <g>
        <circle class="cls-2" cx="352.63367" cy="310.80666" r="20.00567"/>
        <path class="cls-3" d="M352.63376,331.718a20.91128,20.91128,0,1,1,20.911-20.91128A20.93536,20.93536,0,0,1,352.63376,331.718Zm0-40.01119a19.09991,19.09991,0,1,0,19.09962,19.09991A19.12144,19.12144,0,0,0,352.63376,291.70681Z"/>
      </g>
    </g>
    <polygon class="cls-1" points="437.071 263.784 529.311 158.772 530.672 159.967 445.555 256.871 529.543 209.061 530.44 210.636 437.071 263.784"/>
    <g>
      <g>
        <circle class="cls-2" cx="529.99163" cy="159.36952" r="20.00567"/>
        <path class="cls-3" d="M529.99154,180.2808a20.91129,20.91129,0,1,1,20.91158-20.91129A20.93486,20.93486,0,0,1,529.99154,180.2808Zm0-40.0112a19.09991,19.09991,0,1,0,19.1002,19.09991A19.12131,19.12131,0,0,0,529.99154,140.2696Z"/>
      </g>
      <g>
        <circle class="cls-2" cx="529.99163" cy="209.84856" r="20.00567"/>
        <path class="cls-3" d="M529.99154,230.75987a20.91129,20.91129,0,1,1,20.91158-20.91129A20.93486,20.93486,0,0,1,529.99154,230.75987Zm0-40.0112a19.09991,19.09991,0,1,0,19.1002,19.09991A19.12131,19.12131,0,0,0,529.99154,190.74867Z"/>
      </g>
    </g>
    <g>
      <g>
        <circle class="cls-2" cx="441.31265" cy="108.89047" r="20.00567"/>
        <path class="cls-3" d="M441.31265,129.80173a20.91129,20.91129,0,1,1,20.91158-20.91129A20.93537,20.93537,0,0,1,441.31265,129.80173Zm0-40.0112a19.09991,19.09991,0,1,0,19.10021,19.09991A19.12144,19.12144,0,0,0,441.31265,89.79053Z"/>
      </g>
      <g>
        <circle class="cls-2" cx="441.31265" cy="159.36952" r="20.00567"/>
        <path class="cls-3" d="M441.31265,180.2808a20.91129,20.91129,0,1,1,20.91158-20.91129A20.93537,20.93537,0,0,1,441.31265,180.2808Zm0-40.0112a19.09991,19.09991,0,1,0,19.10021,19.09991A19.12144,19.12144,0,0,0,441.31265,140.2696Z"/>
      </g>
      <g>
        <circle class="cls-2" cx="441.31265" cy="260.32761" r="20.00567"/>
        <path class="cls-3" d="M441.31265,281.23893a20.91128,20.91128,0,1,1,20.91158-20.91128A20.93536,20.93536,0,0,1,441.31265,281.23893Zm0-40.01119a19.09991,19.09991,0,1,0,19.10021,19.09991A19.12144,19.12144,0,0,0,441.31265,241.22774Z"/>
      </g>
    </g>
  </g>
  <g>
    <path d="M67.70117,372.26841a2.99961,2.99961,0,0,1-3.165-3.19482,5.932,5.932,0,0,1,.79492-2.625l2.42969-4.94971h1.63574l-2.29492,4.58985a2.44965,2.44965,0,0,1,.94434-.165,2.85888,2.85888,0,0,1,2.80469,3.08984A3.04371,3.04371,0,0,1,67.70117,372.26841Zm-.01465-5.06982a1.62831,1.62831,0,0,0-1.62011,1.84521,1.64029,1.64029,0,1,0,1.62011-1.84521Z"/>
    <path d="M76.46094,363.07408V361.454h1.62011v1.62012Zm.04492,9.10449v-7.60449h1.53027v7.60449Z"/>
    <path d="M85.10059,372.17857V367.5438a1.4763,1.4763,0,0,0-1.53028-1.69482,1.51419,1.51419,0,0,0-1.57422,1.69482v4.63477H80.46582v-7.60449h1.5v.76465a2.72118,2.72118,0,0,1,2.02539-.855,2.63456,2.63456,0,0,1,1.874.69,2.79035,2.79035,0,0,1,.76563,2.145v4.85986Z"/>
    <path d="M94.35547,371.59361a2.59334,2.59334,0,0,1-1.84473.6748,2.36575,2.36575,0,0,1-1.99511-.86963v3.8545H88.98535v-10.6792h1.5v.80957a2.33956,2.33956,0,0,1,2.00977-.89991,2.62949,2.62949,0,0,1,1.86035.6753,6.484,6.484,0,0,1,0,6.43457Zm-2.25-5.74463c-1.37988,0-1.58984,1.16992-1.58984,2.51953,0,1.3501.21,2.53516,1.58984,2.53516s1.57519-1.18506,1.57519-2.53516C93.68066,367.0189,93.48535,365.849,92.10547,365.849Z"/>
    <path d="M101.87012,372.17857v-.76514a2.71728,2.71728,0,0,1-2.02442.855,2.63537,2.63537,0,0,1-1.875-.68994,2.7933,2.7933,0,0,1-.76562-2.145v-4.85937h1.53027v4.63476a1.47654,1.47654,0,0,0,1.53028,1.69483,1.51419,1.51419,0,0,0,1.57421-1.69483v-4.63476h1.53028v7.60449Z"/>
    <path d="M108.06543,372.17857a1.97954,1.97954,0,0,1-2.085-2.11475v-4.18506h-.86914v-1.16992h.86914v-2.31006h1.53027v2.31006h1.46973v1.16992h-1.46973v4.10987a.77292.77292,0,0,0,.83985.88476h.62988v1.30518Z"/>
    <path d="M113.39063,372.26841a4.18594,4.18594,0,0,1-3.19532-1.09472l1.00586-1.00489a2.95059,2.95059,0,0,0,2.18946.79493c.92968,0,1.665-.33008,1.665-1.0503,0-.50976-.28515-.83984-1.0205-.8999l-1.21485-.105c-1.4248-.11963-2.25-.76465-2.25-2.09961,0-1.48486,1.27539-2.3252,2.86524-2.3252a4.17259,4.17259,0,0,1,2.82031.855l-.96.97509a2.87533,2.87533,0,0,0-1.875-.55517c-.915,0-1.37988.40527-1.37988.97509,0,.4502.23925.79493,1.0498.87012l1.2002.105c1.4248.12012,2.26464.79492,2.26464,2.145C116.55566,371.44371,115.20605,372.26841,113.39063,372.26841Z"/>
    <path d="M118.37012,374.50328v-4.06446h1.74023v2.63965Z"/>
    <path d="M131.165,371.44371a3.07619,3.07619,0,0,1-2.25.83984,3.20874,3.20874,0,0,1-2.28027-.8252,3.03891,3.03891,0,0,1-.80957-2.03955h1.52929a1.461,1.461,0,0,0,1.56055,1.48487,1.53994,1.53994,0,0,0,1.10937-.41993,2.57914,2.57914,0,0,0,.50977-1.875c0-1.2749-.3291-2.23486-1.55957-2.23486a1.442,1.442,0,0,0-1.51465.96h-1.39551v-5.835h5.75977v1.36524h-4.37988v2.81982a2.44582,2.44582,0,0,1,1.7705-.61523,2.62747,2.62747,0,0,1,1.91993.68994,3.76378,3.76378,0,0,1,.92968,2.85009A3.61972,3.61972,0,0,1,131.165,371.44371Z"/>
    <path d="M142.32422,372.17857V367.5438a1.47608,1.47608,0,0,0-1.5293-1.69482,1.5144,1.5144,0,0,0-1.57519,1.69482v4.63477h-1.53028v-7.60449h1.5v.76465a2.72118,2.72118,0,0,1,2.02539-.855,2.6346,2.6346,0,0,1,1.874.69,2.794,2.794,0,0,1,.76562,2.145v4.85986Z"/>
    <path d="M147.335,368.81871a1.87053,1.87053,0,0,0,1.93457,2.12988,2.27218,2.27218,0,0,0,1.8457-.77979l.97461.915a3.56926,3.56926,0,0,1-2.84961,1.18457c-1.90527,0-3.41992-1.00488-3.41992-3.8999,0-2.45947,1.27442-3.88477,3.22461-3.88477,2.04,0,3.22461,1.5,3.22461,3.66016v.67481Zm3.21-2.1001a1.56816,1.56816,0,0,0-1.5-.96,1.58778,1.58778,0,0,0-1.51465.96,2.39685,2.39685,0,0,0-.19531,1.03515h3.41992A2.39137,2.39137,0,0,0,150.54492,366.71861Z"/>
    <path d="M158.88379,372.17857v-.76514a2.71726,2.71726,0,0,1-2.02441.855,2.63534,2.63534,0,0,1-1.875-.68994,2.79327,2.79327,0,0,1-.76563-2.145v-4.85937H155.749v4.63476a1.47654,1.47654,0,0,0,1.53028,1.69483,1.51419,1.51419,0,0,0,1.57422-1.69483v-4.63476h1.53027v7.60449Z"/>
    <path d="M166.999,366.35874a1.41008,1.41008,0,0,0-1.13964-.50976,1.56442,1.56442,0,0,0-1.51465,1.71v4.61963h-1.53028v-7.60449h1.5v.8247a2.52559,2.52559,0,0,1,2.02539-.915,2.3544,2.3544,0,0,1,1.81446.72022Z"/>
    <path d="M174.01953,371.36851a3.07781,3.07781,0,0,1-2.28027.8999,3.04149,3.04149,0,0,1-2.26465-.8999,5.42281,5.42281,0,0,1,0-5.98486,3.04331,3.04331,0,0,1,2.26465-.89991,3.07966,3.07966,0,0,1,2.28027.89991,5.42281,5.42281,0,0,1,0,5.98486Zm-1.15527-5.08447a1.54961,1.54961,0,0,0-1.125-.43506,1.5145,1.5145,0,0,0-1.10938.43506,4.3987,4.3987,0,0,0,0,4.16943,1.526,1.526,0,0,0,1.10938.4502,1.561,1.561,0,0,0,1.125-.4502,4.3987,4.3987,0,0,0,0-4.16943Z"/>
    <path d="M181.624,372.17857V367.5438a1.47629,1.47629,0,0,0-1.53027-1.69482,1.51419,1.51419,0,0,0-1.57422,1.69482v4.63477h-1.53027v-7.60449h1.5v.76465a2.72117,2.72117,0,0,1,2.02539-.855,2.63458,2.63458,0,0,1,1.874.69,2.79035,2.79035,0,0,1,.76563,2.145v4.85986Z"/>
    <path d="M187.96875,372.26841a4.18592,4.18592,0,0,1-3.19531-1.09472l1.00586-1.00489a2.95055,2.95055,0,0,0,2.18945.79493c.92969,0,1.665-.33008,1.665-1.0503,0-.50976-.28516-.83984-1.02051-.8999l-1.21484-.105c-1.42481-.11963-2.25-.76465-2.25-2.09961,0-1.48486,1.27539-2.3252,2.86523-2.3252a4.17258,4.17258,0,0,1,2.82031.855l-.96.97509a2.87533,2.87533,0,0,0-1.875-.55517c-.915,0-1.37988.40527-1.37988.97509,0,.4502.23926.79493,1.04981.87012l1.20019.105c1.42481.12012,2.26465.79492,2.26465,2.145C191.13379,371.44371,189.78418,372.26841,187.96875,372.26841Z"/>
    <path d="M198.22852,373.58873a6.68137,6.68137,0,0,1-1.21485-1.4253,3.364,3.364,0,0,1-.34472-1.73974v-7.16993a3.36593,3.36593,0,0,1,.34472-1.73974,6.67893,6.67893,0,0,1,1.21485-1.42481l1.03515,1.03467a3.98018,3.98018,0,0,0-.83984.99024,2.6776,2.6776,0,0,0-.22461,1.23v6.98974a2.68038,2.68038,0,0,0,.22461,1.23,3.96967,3.96967,0,0,0,.83984.98975Z"/>
    <path d="M201.30371,363.07408V361.454h1.62012v1.62012Zm.04492,9.10449v-7.60449h1.53028v7.60449Z"/>
    <path d="M209.94336,372.17857V367.5438a1.47608,1.47608,0,0,0-1.5293-1.69482,1.5144,1.5144,0,0,0-1.57519,1.69482v4.63477h-1.53028v-7.60449h1.5v.76465a2.72118,2.72118,0,0,1,2.02539-.855,2.6346,2.6346,0,0,1,1.874.69,2.794,2.794,0,0,1,.76562,2.145v4.85986Z"/>
    <path d="M216.82813,372.26841c-1.71,0-3.38965-1.0498-3.38965-3.8999,0-2.84961,1.67968-3.88477,3.38965-3.88477a3.12134,3.12134,0,0,1,2.50488,1.065l-1.04981,1.02a1.77162,1.77162,0,0,0-1.45507-.71973,1.71493,1.71493,0,0,0-1.41016.6748,2.81306,2.81306,0,0,0-.4502,1.84473,2.862,2.862,0,0,0,.4502,1.86035,1.71625,1.71625,0,0,0,1.41016.67481,1.77085,1.77085,0,0,0,1.45507-.72022l1.04981,1.00537A3.13387,3.13387,0,0,1,216.82813,372.26841Z"/>
    <path d="M223.14355,372.17857a1.93816,1.93816,0,0,1-2.085-2.1001v-8.57959h1.53028v8.48975c0,.585.21.88476.82422.88476h.67578v1.30518Z"/>
    <path d="M230.35742,372.17857v-.76514a2.71877,2.71877,0,0,1-2.02441.855,2.63536,2.63536,0,0,1-1.875-.68994,2.79331,2.79331,0,0,1-.76563-2.145v-4.85937h1.53028v4.63476a1.47653,1.47653,0,0,0,1.53027,1.69483,1.51419,1.51419,0,0,0,1.57422-1.69483v-4.63476h1.53027v7.60449Z"/>
    <path d="M238.65332,372.17857v-.81006a2.34066,2.34066,0,0,1-2.00977.8999,2.63143,2.63143,0,0,1-1.86035-.6748,6.47755,6.47755,0,0,1,0-6.43457,2.59148,2.59148,0,0,1,1.84473-.6753,2.35342,2.35342,0,0,1,1.99512.855v-3.83985h1.53027v10.67969Zm-1.60547-6.32959c-1.37988,0-1.58984,1.16992-1.58984,2.51953,0,1.3501.21,2.53516,1.58984,2.53516s1.5752-1.18506,1.5752-2.53516C238.62305,367.0189,238.42773,365.849,237.04785,365.849Z"/>
    <path d="M242.53809,363.07408V361.454h1.62011v1.62012Zm.04492,9.10449v-7.60449h1.53027v7.60449Z"/>
    <path d="M251.17773,372.17857V367.5438a1.47608,1.47608,0,0,0-1.52929-1.69482,1.51441,1.51441,0,0,0-1.5752,1.69482v4.63477H246.543v-7.60449h1.5v.76465a2.72117,2.72117,0,0,1,2.02539-.855,2.63458,2.63458,0,0,1,1.874.69,2.794,2.794,0,0,1,.76563,2.145v4.85986Z"/>
    <path d="M257.6123,375.34361a3.51381,3.51381,0,0,1-2.68457-1.00537l.97461-.97461a2.13987,2.13987,0,0,0,1.65039.6748,1.71526,1.71526,0,0,0,1.78516-1.93506v-.97461a2.34814,2.34814,0,0,1-1.96582.86963,2.51733,2.51733,0,0,1-1.81445-.6748,6.00779,6.00779,0,0,1,0-6.17969,2.54745,2.54745,0,0,1,1.83008-.66016,2.33087,2.33087,0,0,1,1.99511.89991v-.80957h1.48438v7.55957A3.05053,3.05053,0,0,1,257.6123,375.34361Zm.18067-9.49463c-1.38086,0-1.56055,1.18457-1.56055,2.38476,0,1.19971.17969,2.38477,1.56055,2.38477,1.37988,0,1.54492-1.18506,1.54492-2.38477C259.33789,367.03355,259.17285,365.849,257.793,365.849Z"/>
    <path d="M266.62793,372.17857v-1.36475l4.10937-4.99511a2.06558,2.06558,0,0,0,.57032-1.42481,1.56885,1.56885,0,1,0-3.13477.02979h-1.53027a2.91356,2.91356,0,0,1,3.10449-3.01465,2.86624,2.86624,0,0,1,3.08984,3,3.32588,3.32588,0,0,1-1.00488,2.30957l-3.34473,4.09521h4.34961v1.36475Z"/>
    <path d="M93.10254,389.36851a3.07781,3.07781,0,0,1-2.28027.8999,3.04147,3.04147,0,0,1-2.26465-.8999,5.42281,5.42281,0,0,1,0-5.98486,3.0433,3.0433,0,0,1,2.26465-.89991,3.07966,3.07966,0,0,1,2.28027.89991,5.42774,5.42774,0,0,1,0,5.98486ZM91.94727,384.284a1.54961,1.54961,0,0,0-1.125-.43506,1.5145,1.5145,0,0,0-1.10938.43506,4.3987,4.3987,0,0,0,0,4.16943,1.526,1.526,0,0,0,1.10938.4502,1.561,1.561,0,0,0,1.125-.4502,4.3987,4.3987,0,0,0,0-4.16943Z"/>
    <path d="M100.66211,390.17857v-.76514a2.71879,2.71879,0,0,1-2.02441.855,2.63534,2.63534,0,0,1-1.875-.68994,2.79327,2.79327,0,0,1-.76563-2.145v-4.85937h1.53027v4.63476a1.47654,1.47654,0,0,0,1.53028,1.69483,1.51419,1.51419,0,0,0,1.57422-1.69483v-4.63476h1.53027v7.60449Z"/>
    <path d="M106.85645,390.17857a1.97955,1.97955,0,0,1-2.085-2.11475v-4.18506h-.86914v-1.16992h.86914v-2.31006h1.53028v2.31006h1.46972v1.16992h-1.46972v4.10987a.77292.77292,0,0,0,.83984.88476h.62988v1.30518Z"/>
    <path d="M115.09277,389.59361a2.59331,2.59331,0,0,1-1.84472.6748,2.36576,2.36576,0,0,1-1.99512-.86963v3.8545h-1.53027v-10.6792h1.5v.80957a2.33955,2.33955,0,0,1,2.00976-.89991,2.62948,2.62948,0,0,1,1.86035.6753,6.48393,6.48393,0,0,1,0,6.43457Zm-2.25-5.74463c-1.37988,0-1.58984,1.16992-1.58984,2.51953,0,1.3501.21,2.53516,1.58984,2.53516s1.5752-1.18506,1.5752-2.53516C114.418,385.0189,114.22266,383.849,112.84277,383.849Z"/>
    <path d="M122.60742,390.17857v-.76514a2.71877,2.71877,0,0,1-2.02441.855,2.63536,2.63536,0,0,1-1.875-.68994,2.79331,2.79331,0,0,1-.76563-2.145v-4.85937h1.53028v4.63476a1.47653,1.47653,0,0,0,1.53027,1.69483,1.51419,1.51419,0,0,0,1.57422-1.69483v-4.63476h1.53027v7.60449Z"/>
    <path d="M128.80176,390.17857a1.97954,1.97954,0,0,1-2.085-2.11475v-4.18506h-.86914v-1.16992h.86914v-2.31006h1.53027v2.31006h1.46973v1.16992h-1.46973v4.10987a.77292.77292,0,0,0,.83984.88476h.62989v1.30518Z"/>
    <path d="M134.127,390.26841a4.18593,4.18593,0,0,1-3.19531-1.09472l1.00586-1.00489a2.95057,2.95057,0,0,0,2.18945.79493c.92969,0,1.665-.33008,1.665-1.0503,0-.50976-.28515-.83984-1.02051-.8999l-1.21484-.105c-1.4248-.11963-2.25-.76465-2.25-2.09961,0-1.48486,1.27539-2.3252,2.86524-2.3252a4.17261,4.17261,0,0,1,2.82031.855l-.96.97509a2.87535,2.87535,0,0,0-1.875-.55517c-.915,0-1.37989.40527-1.37989.97509,0,.4502.23926.79493,1.04981.87012l1.20019.105c1.42481.12012,2.26465.79492,2.26465,2.145C137.292,389.44371,135.94238,390.26841,134.127,390.26841Z"/>
    <path d="M141.05664,390.16343a6.59871,6.59871,0,0,1-1.20019,1.4253l-1.04981-1.0503a3.94394,3.94394,0,0,0,.8252-.98974,2.66467,2.66467,0,0,0,.22461-1.21485V381.3441a2.66555,2.66555,0,0,0-.22461-1.21534,3.94394,3.94394,0,0,0-.8252-.98974l1.04981-1.04981a6.59626,6.59626,0,0,1,1.20019,1.42481,3.37829,3.37829,0,0,1,.35938,1.73974v7.16993A3.37632,3.37632,0,0,1,141.05664,390.16343Z"/>
    <path d="M143.86133,392.50328v-4.06446h1.74023v2.63965Z"/>
    <path d="M151.31641,390.17857v-1.36475l4.10937-4.99511a2.06562,2.06562,0,0,0,.57031-1.42481,1.56885,1.56885,0,1,0-3.13476.02979h-1.53028a2.91356,2.91356,0,0,1,3.1045-3.01465,2.86624,2.86624,0,0,1,3.08984,3,3.32592,3.32592,0,0,1-1.00488,2.30957l-3.34473,4.09521h4.34961v1.36475Z"/>
    <path d="M164.69629,388.57359v1.605h-1.48535v-1.605H158.8916v-1.42481l3.76465-7.6499h1.64941l-3.75,7.6499h2.65528v-2.49023h1.48535v2.49023h1.13965v1.42481Z"/>
    <path d="M174.17578,390.26841c-1.71,0-3.38965-1.0498-3.38965-3.8999,0-2.84961,1.67969-3.88477,3.38965-3.88477a3.12131,3.12131,0,0,1,2.50488,1.065l-1.0498,1.02a1.77162,1.77162,0,0,0-1.45508-.71973,1.71491,1.71491,0,0,0-1.41015.6748,2.81306,2.81306,0,0,0-.4502,1.84473,2.862,2.862,0,0,0,.4502,1.86035,1.71623,1.71623,0,0,0,1.41015.67481,1.77085,1.77085,0,0,0,1.45508-.72022l1.0498,1.00537A3.13384,3.13384,0,0,1,174.17578,390.26841Z"/>
    <path d="M183.26563,389.36851a3.07782,3.07782,0,0,1-2.28028.8999,3.04149,3.04149,0,0,1-2.26465-.8999,5.42281,5.42281,0,0,1,0-5.98486,3.04331,3.04331,0,0,1,2.26465-.89991,3.07967,3.07967,0,0,1,2.28028.89991,5.42281,5.42281,0,0,1,0,5.98486Zm-1.15528-5.08447a1.54958,1.54958,0,0,0-1.125-.43506,1.51446,1.51446,0,0,0-1.10937.43506,4.3987,4.3987,0,0,0,0,4.16943,1.526,1.526,0,0,0,1.10937.4502,1.561,1.561,0,0,0,1.125-.4502,4.3987,4.3987,0,0,0,0-4.16943Z"/>
    <path d="M190.87012,390.17857V385.5438a1.4763,1.4763,0,0,0-1.53028-1.69482,1.51418,1.51418,0,0,0-1.57421,1.69482v4.63477h-1.53028v-7.60449h1.5v.76465a2.72118,2.72118,0,0,1,2.02539-.855,2.6346,2.6346,0,0,1,1.874.69,2.79038,2.79038,0,0,1,.76562,2.145v4.85986Z"/>
    <path d="M199.39063,390.17857V385.5438a1.47608,1.47608,0,0,0-1.5293-1.69482,1.51441,1.51441,0,0,0-1.5752,1.69482v4.63477h-1.53027v-7.60449h1.5v.76465a2.72118,2.72118,0,0,1,2.02539-.855,2.63458,2.63458,0,0,1,1.874.69,2.794,2.794,0,0,1,.76563,2.145v4.85986Z"/>
    <path d="M204.40039,386.81871a1.87053,1.87053,0,0,0,1.93457,2.12988,2.27218,2.27218,0,0,0,1.8457-.77979l.97461.915a3.56926,3.56926,0,0,1-2.84961,1.18457c-1.90527,0-3.41992-1.00488-3.41992-3.8999,0-2.45947,1.27442-3.88477,3.22461-3.88477,2.04,0,3.22461,1.5,3.22461,3.66016v.67481Zm3.21-2.1001a1.56816,1.56816,0,0,0-1.5-.96,1.58778,1.58778,0,0,0-1.51465.96,2.39685,2.39685,0,0,0-.19531,1.03515h3.41992A2.39137,2.39137,0,0,0,207.61035,384.71861Z"/>
    <path d="M214.36035,390.26841c-1.71,0-3.38965-1.0498-3.38965-3.8999,0-2.84961,1.67969-3.88477,3.38965-3.88477a3.12131,3.12131,0,0,1,2.50488,1.065l-1.0498,1.02a1.77162,1.77162,0,0,0-1.45508-.71973,1.71491,1.71491,0,0,0-1.41015.6748,2.81306,2.81306,0,0,0-.4502,1.84473,2.862,2.862,0,0,0,.4502,1.86035,1.71623,1.71623,0,0,0,1.41015.67481,1.77085,1.77085,0,0,0,1.45508-.72022l1.0498,1.00537A3.13384,3.13384,0,0,1,214.36035,390.26841Z"/>
    <path d="M220.89941,390.17857a1.97954,1.97954,0,0,1-2.085-2.11475v-4.18506h-.86914v-1.16992h.86914v-2.31006h1.53028v2.31006h1.46972v1.16992h-1.46972v4.10987a.77292.77292,0,0,0,.83984.88476h.62988v1.30518Z"/>
    <path d="M223.71973,381.07408V379.454h1.62011v1.62012Zm.04492,9.10449v-7.60449h1.53027v7.60449Z"/>
    <path d="M232.80957,389.36851a3.07781,3.07781,0,0,1-2.28027.8999,3.04149,3.04149,0,0,1-2.26465-.8999,5.42281,5.42281,0,0,1,0-5.98486,3.04331,3.04331,0,0,1,2.26465-.89991,3.07966,3.07966,0,0,1,2.28027.89991,5.42774,5.42774,0,0,1,0,5.98486ZM231.6543,384.284a1.54961,1.54961,0,0,0-1.125-.43506,1.5145,1.5145,0,0,0-1.10938.43506,4.3987,4.3987,0,0,0,0,4.16943,1.526,1.526,0,0,0,1.10938.4502,1.561,1.561,0,0,0,1.125-.4502,4.3987,4.3987,0,0,0,0-4.16943Z"/>
    <path d="M240.41406,390.17857V385.5438a1.47608,1.47608,0,0,0-1.52929-1.69482,1.51441,1.51441,0,0,0-1.5752,1.69482v4.63477H235.7793v-7.60449h1.5v.76465a2.72117,2.72117,0,0,1,2.02539-.855,2.63459,2.63459,0,0,1,1.874.69,2.794,2.794,0,0,1,.76563,2.145v4.85986Z"/>
    <path d="M246.75977,390.26841a4.18594,4.18594,0,0,1-3.19532-1.09472l1.00586-1.00489a2.95059,2.95059,0,0,0,2.18946.79493c.92968,0,1.665-.33008,1.665-1.0503,0-.50976-.28515-.83984-1.0205-.8999l-1.21485-.105c-1.4248-.11963-2.25-.76465-2.25-2.09961,0-1.48486,1.27539-2.3252,2.86524-2.3252a4.17259,4.17259,0,0,1,2.82031.855l-.96.97509a2.87533,2.87533,0,0,0-1.875-.55517c-.915,0-1.37988.40527-1.37988.97509,0,.4502.23925.79493,1.0498.87012l1.2002.105c1.4248.12012,2.26464.79492,2.26464,2.145C249.9248,389.44371,248.5752,390.26841,246.75977,390.26841Z"/>
  </g>
  <g>
    <path d="M340.32715,372.26841a2.9996,2.9996,0,0,1-3.165-3.19482,5.932,5.932,0,0,1,.79492-2.625l2.42969-4.94971h1.63574l-2.29492,4.58985a2.44965,2.44965,0,0,1,.94434-.165,2.85887,2.85887,0,0,1,2.80468,3.08984A3.0437,3.0437,0,0,1,340.32715,372.26841Zm-.01465-5.06982a1.62831,1.62831,0,0,0-1.62012,1.84521,1.6403,1.6403,0,1,0,1.62012-1.84521Z"/>
    <path d="M349.08691,363.07408V361.454H350.707v1.62012Zm.04493,9.10449v-7.60449h1.53027v7.60449Z"/>
    <path d="M357.72656,372.17857V367.5438a1.47629,1.47629,0,0,0-1.53027-1.69482,1.51419,1.51419,0,0,0-1.57422,1.69482v4.63477H353.0918v-7.60449h1.5v.76465a2.72117,2.72117,0,0,1,2.02539-.855,2.63459,2.63459,0,0,1,1.874.69,2.79035,2.79035,0,0,1,.76563,2.145v4.85986Z"/>
    <path d="M366.98145,371.59361a2.59335,2.59335,0,0,1-1.84473.6748,2.36576,2.36576,0,0,1-1.99512-.86963v3.8545h-1.53027v-10.6792h1.5v.80957a2.33955,2.33955,0,0,1,2.00976-.89991,2.62952,2.62952,0,0,1,1.86036.6753,6.484,6.484,0,0,1,0,6.43457Zm-2.25-5.74463c-1.37989,0-1.58985,1.16992-1.58985,2.51953,0,1.3501.21,2.53516,1.58985,2.53516s1.57519-1.18506,1.57519-2.53516C366.30664,367.0189,366.11133,365.849,364.73145,365.849Z"/>
    <path d="M374.49609,372.17857v-.76514a2.71724,2.71724,0,0,1-2.02441.855,2.63537,2.63537,0,0,1-1.875-.68994,2.79331,2.79331,0,0,1-.76563-2.145v-4.85937h1.53028v4.63476a1.47653,1.47653,0,0,0,1.53027,1.69483,1.51419,1.51419,0,0,0,1.57422-1.69483v-4.63476h1.53027v7.60449Z"/>
    <path d="M380.69141,372.17857a1.97954,1.97954,0,0,1-2.085-2.11475v-4.18506h-.86915v-1.16992h.86915v-2.31006h1.53027v2.31006h1.46973v1.16992h-1.46973v4.10987a.77292.77292,0,0,0,.83984.88476h.62989v1.30518Z"/>
    <path d="M386.0166,372.26841a4.18592,4.18592,0,0,1-3.19531-1.09472l1.00586-1.00489a2.95057,2.95057,0,0,0,2.18945.79493c.92969,0,1.665-.33008,1.665-1.0503,0-.50976-.28516-.83984-1.02051-.8999l-1.21484-.105c-1.42481-.11963-2.25-.76465-2.25-2.09961,0-1.48486,1.27539-2.3252,2.86523-2.3252a4.17262,4.17262,0,0,1,2.82032.855l-.96.97509a2.87535,2.87535,0,0,0-1.875-.55517c-.915,0-1.37989.40527-1.37989.97509,0,.4502.23926.79493,1.04981.87012l1.20019.105c1.42481.12012,2.26465.79492,2.26465,2.145C389.18164,371.44371,387.832,372.26841,386.0166,372.26841Z"/>
    <path d="M390.99609,374.50328v-4.06446h1.74024v2.63965Z"/>
    <path d="M401.51074,372.26841a2.99961,2.99961,0,0,1-3.165-3.19482,5.93185,5.93185,0,0,1,.79493-2.625l2.42968-4.94971h1.63574l-2.29492,4.58985a2.44965,2.44965,0,0,1,.94434-.165,2.85888,2.85888,0,0,1,2.80469,3.08984A3.04371,3.04371,0,0,1,401.51074,372.26841Zm-.01465-5.06982a1.62831,1.62831,0,0,0-1.62011,1.84521,1.64029,1.64029,0,1,0,1.62011-1.84521Z"/>
    <path d="M414.9502,372.17857V367.5438a1.47608,1.47608,0,0,0-1.5293-1.69482,1.51441,1.51441,0,0,0-1.5752,1.69482v4.63477h-1.53027v-7.60449h1.5v.76465a2.72118,2.72118,0,0,1,2.02539-.855,2.63456,2.63456,0,0,1,1.874.69,2.794,2.794,0,0,1,.76563,2.145v4.85986Z"/>
    <path d="M419.96094,368.81871a1.87053,1.87053,0,0,0,1.93457,2.12988,2.27219,2.27219,0,0,0,1.8457-.77979l.97461.915a3.56928,3.56928,0,0,1-2.84961,1.18457c-1.90527,0-3.41992-1.00488-3.41992-3.8999,0-2.45947,1.27441-3.88477,3.22461-3.88477,2.04,0,3.22461,1.5,3.22461,3.66016v.67481Zm3.21-2.1001a1.56817,1.56817,0,0,0-1.5-.96,1.58777,1.58777,0,0,0-1.51465.96,2.39685,2.39685,0,0,0-.19531,1.03515h3.41992A2.39137,2.39137,0,0,0,423.1709,366.71861Z"/>
    <path d="M431.50977,372.17857v-.76514a2.71728,2.71728,0,0,1-2.02442.855,2.63537,2.63537,0,0,1-1.875-.68994,2.7933,2.7933,0,0,1-.76562-2.145v-4.85937H428.375v4.63476a1.47653,1.47653,0,0,0,1.53027,1.69483,1.51419,1.51419,0,0,0,1.57422-1.69483v-4.63476h1.53028v7.60449Z"/>
    <path d="M439.625,366.35874a1.41011,1.41011,0,0,0-1.13965-.50976,1.56442,1.56442,0,0,0-1.51465,1.71v4.61963h-1.53027v-7.60449h1.5v.8247a2.52558,2.52558,0,0,1,2.02539-.915,2.35438,2.35438,0,0,1,1.81445.72022Z"/>
    <path d="M446.64551,371.36851a3.07782,3.07782,0,0,1-2.28028.8999,3.04145,3.04145,0,0,1-2.26464-.8999,5.42281,5.42281,0,0,1,0-5.98486,3.04327,3.04327,0,0,1,2.26464-.89991,3.07967,3.07967,0,0,1,2.28028.89991,5.42281,5.42281,0,0,1,0,5.98486Zm-1.15528-5.08447a1.54958,1.54958,0,0,0-1.125-.43506,1.51449,1.51449,0,0,0-1.10937.43506,4.3987,4.3987,0,0,0,0,4.16943,1.526,1.526,0,0,0,1.10937.4502,1.561,1.561,0,0,0,1.125-.4502,4.39863,4.39863,0,0,0,0-4.16943Z"/>
    <path d="M454.25,372.17857V367.5438a1.47629,1.47629,0,0,0-1.53027-1.69482,1.51418,1.51418,0,0,0-1.57422,1.69482v4.63477h-1.53028v-7.60449h1.5v.76465a2.7212,2.7212,0,0,1,2.0254-.855,2.63459,2.63459,0,0,1,1.874.69,2.79035,2.79035,0,0,1,.76562,2.145v4.85986Z"/>
    <path d="M460.59473,372.26841a4.18594,4.18594,0,0,1-3.19532-1.09472l1.00586-1.00489a2.95059,2.95059,0,0,0,2.18946.79493c.92968,0,1.665-.33008,1.665-1.0503,0-.50976-.28516-.83984-1.02051-.8999l-1.21485-.105c-1.4248-.11963-2.25-.76465-2.25-2.09961,0-1.48486,1.27539-2.3252,2.86524-2.3252a4.17259,4.17259,0,0,1,2.82031.855l-.96.97509a2.87533,2.87533,0,0,0-1.875-.55517c-.915,0-1.37988.40527-1.37988.97509,0,.4502.23926.79493,1.0498.87012l1.2002.105c1.4248.12012,2.26465.79492,2.26465,2.145C463.75977,371.44371,462.41016,372.26841,460.59473,372.26841Z"/>
    <path d="M470.85449,373.58873a6.68132,6.68132,0,0,1-1.21484-1.4253,3.364,3.364,0,0,1-.34473-1.73974v-7.16993a3.36594,3.36594,0,0,1,.34473-1.73974,6.67887,6.67887,0,0,1,1.21484-1.42481l1.03516,1.03467a3.98023,3.98023,0,0,0-.83985.99024,2.67762,2.67762,0,0,0-.2246,1.23v6.98974a2.68039,2.68039,0,0,0,.2246,1.23,3.96971,3.96971,0,0,0,.83985.98975Z"/>
    <path d="M473.92969,363.07408V361.454h1.62011v1.62012Zm.04492,9.10449v-7.60449h1.53027v7.60449Z"/>
    <path d="M482.56934,372.17857V367.5438A1.47608,1.47608,0,0,0,481.04,365.849a1.51441,1.51441,0,0,0-1.5752,1.69482v4.63477h-1.53027v-7.60449h1.5v.76465a2.72118,2.72118,0,0,1,2.02539-.855,2.63456,2.63456,0,0,1,1.874.69,2.79394,2.79394,0,0,1,.76563,2.145v4.85986Z"/>
    <path d="M489.4541,372.26841c-1.71,0-3.38965-1.0498-3.38965-3.8999,0-2.84961,1.67969-3.88477,3.38965-3.88477a3.12131,3.12131,0,0,1,2.50488,1.065l-1.0498,1.02a1.77162,1.77162,0,0,0-1.45508-.71973,1.71491,1.71491,0,0,0-1.41015.6748,2.81306,2.81306,0,0,0-.4502,1.84473,2.862,2.862,0,0,0,.4502,1.86035,1.71623,1.71623,0,0,0,1.41015.67481,1.77085,1.77085,0,0,0,1.45508-.72022l1.0498,1.00537A3.13384,3.13384,0,0,1,489.4541,372.26841Z"/>
    <path d="M495.76953,372.17857a1.93816,1.93816,0,0,1-2.085-2.1001v-8.57959h1.53027v8.48975c0,.585.21.88476.82422.88476h.67578v1.30518Z"/>
    <path d="M502.9834,372.17857v-.76514a2.71879,2.71879,0,0,1-2.02442.855,2.63537,2.63537,0,0,1-1.875-.68994,2.7933,2.7933,0,0,1-.76562-2.145v-4.85937h1.53027v4.63476a1.47654,1.47654,0,0,0,1.53028,1.69483,1.51419,1.51419,0,0,0,1.57422-1.69483v-4.63476h1.53027v7.60449Z"/>
    <path d="M511.2793,372.17857v-.81006a2.34067,2.34067,0,0,1-2.00977.8999,2.63141,2.63141,0,0,1-1.86035-.6748,6.47755,6.47755,0,0,1,0-6.43457,2.59146,2.59146,0,0,1,1.84473-.6753,2.35341,2.35341,0,0,1,1.99511.855v-3.83985h1.53028v10.67969Zm-1.60547-6.32959c-1.37988,0-1.58985,1.16992-1.58985,2.51953,0,1.3501.21,2.53516,1.58985,2.53516s1.57519-1.18506,1.57519-2.53516C511.249,367.0189,511.05371,365.849,509.67383,365.849Z"/>
    <path d="M515.16406,363.07408V361.454h1.62012v1.62012Zm.04492,9.10449v-7.60449h1.53028v7.60449Z"/>
    <path d="M523.80371,372.17857V367.5438a1.47608,1.47608,0,0,0-1.5293-1.69482,1.51441,1.51441,0,0,0-1.57519,1.69482v4.63477H519.169v-7.60449h1.5v.76465a2.72117,2.72117,0,0,1,2.02539-.855,2.63459,2.63459,0,0,1,1.874.69,2.794,2.794,0,0,1,.76562,2.145v4.85986Z"/>
    <path d="M530.23828,375.34361a3.51378,3.51378,0,0,1-2.68457-1.00537l.97461-.97461a2.13987,2.13987,0,0,0,1.65039.6748,1.71526,1.71526,0,0,0,1.78516-1.93506v-.97461a2.34815,2.34815,0,0,1-1.96582.86963,2.51738,2.51738,0,0,1-1.81446-.6748,6.00785,6.00785,0,0,1,0-6.17969,2.54748,2.54748,0,0,1,1.83008-.66016,2.33089,2.33089,0,0,1,1.99512.89991v-.80957h1.48437v7.55957A3.05053,3.05053,0,0,1,530.23828,375.34361Zm.18067-9.49463c-1.38086,0-1.56055,1.18457-1.56055,2.38476,0,1.19971.17969,2.38477,1.56055,2.38477,1.37988,0,1.54492-1.18506,1.54492-2.38477C531.96387,367.03355,531.79883,365.849,530.419,365.849Z"/>
    <path d="M539.25391,372.17857v-1.36475l4.10937-4.99511a2.06562,2.06562,0,0,0,.57031-1.42481,1.56885,1.56885,0,1,0-3.13476.02979h-1.53028a2.91356,2.91356,0,0,1,3.1045-3.01465,2.86624,2.86624,0,0,1,3.08984,3,3.32592,3.32592,0,0,1-1.00488,2.30957l-3.34473,4.09521h4.34961v1.36475Z"/>
    <path d="M365.72852,389.36851a3.07782,3.07782,0,0,1-2.28028.8999,3.04149,3.04149,0,0,1-2.26465-.8999,5.42281,5.42281,0,0,1,0-5.98486,3.04331,3.04331,0,0,1,2.26465-.89991,3.07967,3.07967,0,0,1,2.28028.89991,5.42774,5.42774,0,0,1,0,5.98486Zm-1.15528-5.08447a1.54958,1.54958,0,0,0-1.125-.43506,1.51446,1.51446,0,0,0-1.10937.43506,4.3987,4.3987,0,0,0,0,4.16943,1.526,1.526,0,0,0,1.10937.4502,1.561,1.561,0,0,0,1.125-.4502,4.3987,4.3987,0,0,0,0-4.16943Z"/>
    <path d="M373.28809,390.17857v-.76514a2.71879,2.71879,0,0,1-2.02442.855,2.63537,2.63537,0,0,1-1.875-.68994,2.7933,2.7933,0,0,1-.76562-2.145v-4.85937h1.53027v4.63476a1.47654,1.47654,0,0,0,1.53027,1.69483,1.51419,1.51419,0,0,0,1.57422-1.69483v-4.63476h1.53028v7.60449Z"/>
    <path d="M379.48242,390.17857a1.97954,1.97954,0,0,1-2.085-2.11475v-4.18506h-.86914v-1.16992h.86914v-2.31006h1.53027v2.31006h1.46973v1.16992h-1.46973v4.10987a.77292.77292,0,0,0,.83985.88476h.62988v1.30518Z"/>
    <path d="M387.71875,389.59361a2.59334,2.59334,0,0,1-1.84473.6748,2.36575,2.36575,0,0,1-1.99511-.86963v3.8545h-1.53028v-10.6792h1.5v.80957a2.33957,2.33957,0,0,1,2.00977-.89991,2.62949,2.62949,0,0,1,1.86035.6753,6.484,6.484,0,0,1,0,6.43457Zm-2.25-5.74463c-1.37988,0-1.58984,1.16992-1.58984,2.51953,0,1.3501.21,2.53516,1.58984,2.53516s1.5752-1.18506,1.5752-2.53516C387.044,385.0189,386.84863,383.849,385.46875,383.849Z"/>
    <path d="M395.2334,390.17857v-.76514a2.71879,2.71879,0,0,1-2.02442.855,2.63537,2.63537,0,0,1-1.875-.68994,2.7933,2.7933,0,0,1-.76562-2.145v-4.85937h1.53027v4.63476a1.47654,1.47654,0,0,0,1.53028,1.69483,1.51419,1.51419,0,0,0,1.57422-1.69483v-4.63476h1.53027v7.60449Z"/>
    <path d="M401.42773,390.17857a1.97954,1.97954,0,0,1-2.085-2.11475v-4.18506h-.86914v-1.16992h.86914v-2.31006h1.53028v2.31006h1.46972v1.16992h-1.46972v4.10987a.77292.77292,0,0,0,.83984.88476h.62988v1.30518Z"/>
    <path d="M406.75293,390.26841a4.18592,4.18592,0,0,1-3.19531-1.09472l1.00586-1.00489a2.95055,2.95055,0,0,0,2.18945.79493c.92969,0,1.665-.33008,1.665-1.0503,0-.50976-.28516-.83984-1.02051-.8999l-1.21484-.105c-1.42481-.11963-2.25-.76465-2.25-2.09961,0-1.48486,1.27539-2.3252,2.86523-2.3252a4.17258,4.17258,0,0,1,2.82031.855l-.96.97509a2.87533,2.87533,0,0,0-1.875-.55517c-.915,0-1.37988.40527-1.37988.97509,0,.4502.23926.79493,1.04981.87012l1.20019.105c1.42481.12012,2.26465.79492,2.26465,2.145C409.918,389.44371,408.56836,390.26841,406.75293,390.26841Z"/>
    <path d="M413.68262,390.16343a6.599,6.599,0,0,1-1.2002,1.4253l-1.0498-1.0503a3.9439,3.9439,0,0,0,.82519-.98974,2.66454,2.66454,0,0,0,.22461-1.21485V381.3441a2.66542,2.66542,0,0,0-.22461-1.21534,3.9439,3.9439,0,0,0-.82519-.98974l1.0498-1.04981a6.5966,6.5966,0,0,1,1.2002,1.42481,3.37828,3.37828,0,0,1,.35937,1.73974v7.16993A3.37631,3.37631,0,0,1,413.68262,390.16343Z"/>
    <path d="M416.4873,392.50328v-4.06446h1.74024v2.63965Z"/>
    <path d="M426.89648,390.28355a2.97077,2.97077,0,0,1-3.26953-3h1.53028a1.60751,1.60751,0,0,0,1.73925,1.62012,1.65324,1.65324,0,0,0,1.74024-1.77,1.59757,1.59757,0,0,0-1.78516-1.75489h-.25488v-1.335h.25488a1.46241,1.46241,0,0,0,1.62012-1.62011,1.591,1.591,0,0,0-3.17969-.11963h-1.53027a2.96319,2.96319,0,0,1,3.13476-2.91016,2.91525,2.91525,0,0,1,3.10547,2.98486,2.3433,2.3433,0,0,1-1.335,2.27979,2.50889,2.50889,0,0,1,1.5,2.52A3.002,3.002,0,0,1,426.89648,390.28355Z"/>
    <path d="M431.9375,390.17857v-1.36475l4.10938-4.99511a2.06562,2.06562,0,0,0,.57031-1.42481,1.56885,1.56885,0,1,0-3.13477.02979h-1.53027a2.91356,2.91356,0,0,1,3.10449-3.01465,2.86624,2.86624,0,0,1,3.08984,3,3.32588,3.32588,0,0,1-1.00488,2.30957l-3.34472,4.09521h4.3496v1.36475Z"/>
    <path d="M446.80176,390.26841c-1.71,0-3.38965-1.0498-3.38965-3.8999,0-2.84961,1.67969-3.88477,3.38965-3.88477a3.12134,3.12134,0,0,1,2.50488,1.065l-1.0498,1.02a1.77162,1.77162,0,0,0-1.45508-.71973,1.71494,1.71494,0,0,0-1.41016.6748,2.81306,2.81306,0,0,0-.45019,1.84473,2.862,2.862,0,0,0,.45019,1.86035,1.71626,1.71626,0,0,0,1.41016.67481,1.77085,1.77085,0,0,0,1.45508-.72022l1.0498,1.00537A3.13387,3.13387,0,0,1,446.80176,390.26841Z"/>
    <path d="M455.8916,389.36851a3.07781,3.07781,0,0,1-2.28027.8999,3.04149,3.04149,0,0,1-2.26465-.8999,5.42281,5.42281,0,0,1,0-5.98486,3.04331,3.04331,0,0,1,2.26465-.89991,3.07966,3.07966,0,0,1,2.28027.89991,5.42281,5.42281,0,0,1,0,5.98486Zm-1.15527-5.08447a1.54961,1.54961,0,0,0-1.125-.43506,1.5145,1.5145,0,0,0-1.10938.43506,4.3987,4.3987,0,0,0,0,4.16943,1.526,1.526,0,0,0,1.10938.4502,1.561,1.561,0,0,0,1.125-.4502,4.3987,4.3987,0,0,0,0-4.16943Z"/>
    <path d="M463.49609,390.17857V385.5438a1.47629,1.47629,0,0,0-1.53027-1.69482,1.51419,1.51419,0,0,0-1.57422,1.69482v4.63477h-1.53027v-7.60449h1.5v.76465a2.72117,2.72117,0,0,1,2.02539-.855,2.63458,2.63458,0,0,1,1.874.69,2.79035,2.79035,0,0,1,.76563,2.145v4.85986Z"/>
    <path d="M472.0166,390.17857V385.5438a1.47608,1.47608,0,0,0-1.5293-1.69482,1.51441,1.51441,0,0,0-1.57519,1.69482v4.63477h-1.53027v-7.60449h1.5v.76465a2.72117,2.72117,0,0,1,2.02539-.855,2.63459,2.63459,0,0,1,1.874.69,2.794,2.794,0,0,1,.76563,2.145v4.85986Z"/>
    <path d="M477.02637,386.81871a1.87053,1.87053,0,0,0,1.93457,2.12988,2.27219,2.27219,0,0,0,1.8457-.77979l.97461.915a3.56928,3.56928,0,0,1-2.84961,1.18457c-1.90527,0-3.41992-1.00488-3.41992-3.8999,0-2.45947,1.27441-3.88477,3.22461-3.88477,2.04,0,3.22461,1.5,3.22461,3.66016v.67481Zm3.21-2.1001a1.56818,1.56818,0,0,0-1.5-.96,1.58777,1.58777,0,0,0-1.51465.96,2.39685,2.39685,0,0,0-.19531,1.03515h3.41992A2.39137,2.39137,0,0,0,480.23633,384.71861Z"/>
    <path d="M486.98633,390.26841c-1.71,0-3.38965-1.0498-3.38965-3.8999,0-2.84961,1.67969-3.88477,3.38965-3.88477a3.12134,3.12134,0,0,1,2.50488,1.065l-1.0498,1.02a1.77162,1.77162,0,0,0-1.45508-.71973,1.71494,1.71494,0,0,0-1.41016.6748,2.81306,2.81306,0,0,0-.45019,1.84473,2.862,2.862,0,0,0,.45019,1.86035,1.71626,1.71626,0,0,0,1.41016.67481,1.77085,1.77085,0,0,0,1.45508-.72022l1.0498,1.00537A3.13387,3.13387,0,0,1,486.98633,390.26841Z"/>
    <path d="M493.52539,390.17857a1.97954,1.97954,0,0,1-2.085-2.11475v-4.18506h-.86914v-1.16992h.86914v-2.31006h1.53027v2.31006h1.46973v1.16992H492.9707v4.10987a.77292.77292,0,0,0,.83985.88476h.62988v1.30518Z"/>
    <path d="M496.3457,381.07408V379.454h1.62012v1.62012Zm.04493,9.10449v-7.60449h1.53027v7.60449Z"/>
    <path d="M505.43555,389.36851a3.07782,3.07782,0,0,1-2.28028.8999,3.04145,3.04145,0,0,1-2.26464-.8999,5.42276,5.42276,0,0,1,0-5.98486,3.04327,3.04327,0,0,1,2.26464-.89991,3.07967,3.07967,0,0,1,2.28028.89991,5.42774,5.42774,0,0,1,0,5.98486Zm-1.15528-5.08447a1.54958,1.54958,0,0,0-1.125-.43506,1.51446,1.51446,0,0,0-1.10937.43506,4.3987,4.3987,0,0,0,0,4.16943,1.526,1.526,0,0,0,1.10937.4502,1.561,1.561,0,0,0,1.125-.4502,4.3987,4.3987,0,0,0,0-4.16943Z"/>
    <path d="M513.04,390.17857V385.5438a1.47608,1.47608,0,0,0-1.5293-1.69482,1.5144,1.5144,0,0,0-1.57519,1.69482v4.63477h-1.53028v-7.60449h1.5v.76465a2.72118,2.72118,0,0,1,2.02539-.855,2.6346,2.6346,0,0,1,1.874.69,2.794,2.794,0,0,1,.76562,2.145v4.85986Z"/>
    <path d="M519.38574,390.26841a4.18593,4.18593,0,0,1-3.19531-1.09472l1.00586-1.00489a2.95057,2.95057,0,0,0,2.18945.79493c.92969,0,1.665-.33008,1.665-1.0503,0-.50976-.28515-.83984-1.02051-.8999l-1.21484-.105c-1.4248-.11963-2.25-.76465-2.25-2.09961,0-1.48486,1.27539-2.3252,2.86523-2.3252a4.17262,4.17262,0,0,1,2.82032.855l-.96.97509a2.87535,2.87535,0,0,0-1.875-.55517c-.915,0-1.37989.40527-1.37989.97509,0,.4502.23926.79493,1.04981.87012l1.20019.105c1.42481.12012,2.26465.79492,2.26465,2.145C522.55078,389.44371,521.20117,390.26841,519.38574,390.26841Z"/>
  </g>
</svg>
